<svg width="333" height="296" viewBox="0 0 333 296" fill="none" xmlns="http://www.w3.org/2000/svg">
<path d="M166.5 109.181L208.444 33.3133L269.734 6.40984L321.108 1.83624L281.44 19.8616L243.722 55.5087L231.692 95.0569V121.422H264.369L332 143.887L293.958 156.128H245.673L249.25 165.141L216.248 228.095L203.729 269.257L166.5 294.277" stroke="white" stroke-width="2" stroke-miterlimit="10" stroke-linecap="square" stroke-linejoin="bevel"/>
<path d="M4.73918 142.676L101.308 121.422L166.5 109.181L101.308 95.0569L124.556 33.3134" stroke="white" stroke-width="2" stroke-miterlimit="10" stroke-linejoin="bevel"/>
<path d="M101.308 121.422L87.3266 156.128" stroke="white" stroke-width="2" stroke-miterlimit="10" stroke-linejoin="bevel"/>
<path d="M83.75 165.141L122.93 181.148H166.5" stroke="white" stroke-width="2" stroke-miterlimit="10" stroke-linejoin="bevel"/>
<path d="M166.5 109.181V294.277" stroke="white" stroke-width="2" stroke-miterlimit="10" stroke-linejoin="bevel"/>
<path d="M116.752 228.095L166.5 266.567" stroke="white" stroke-width="2" stroke-miterlimit="10" stroke-linejoin="bevel"/>
<path d="M166.5 109.181L124.556 33.3133L63.2657 6.40984L11.8924 1.83624L51.5604 19.8616L89.2775 55.5087L101.308 95.0569V121.422H68.6307L1 143.887L39.0422 156.128H87.3266L83.75 165.141L116.752 228.095L129.271 269.257L166.5 294.277" stroke="white" stroke-width="2" stroke-miterlimit="10" stroke-linecap="square" stroke-linejoin="bevel"/>
<path d="M328.261 142.676L231.692 121.422L166.5 109.181L231.692 95.0569L208.444 33.3134" stroke="white" stroke-width="2" stroke-miterlimit="10" stroke-linejoin="bevel"/>
<path d="M231.692 121.422L245.673 156.128" stroke="white" stroke-width="2" stroke-miterlimit="10" stroke-linejoin="bevel"/>
<path d="M249.25 165.141L210.07 181.148H166.5" stroke="white" stroke-width="2" stroke-miterlimit="10" stroke-linejoin="bevel"/>
<path d="M166.5 109.181V294.277" stroke="white" stroke-width="2" stroke-miterlimit="10" stroke-linejoin="bevel"/>
<path d="M216.248 228.095L166.5 266.567" stroke="white" stroke-width="2" stroke-miterlimit="10" stroke-linejoin="bevel"/>
</svg>
