<svg width="92" height="87" viewBox="0 0 92 87" fill="none" xmlns="http://www.w3.org/2000/svg">
<path d="M65.5312 0.921875C57.6836 0.921875 50.7187 4.29832 46 10.1017C41.2813 4.29832 34.3164 0.921875 26.4688 0.921875C19.6337 0.930889 13.0809 3.89448 8.24779 9.16259C3.41466 14.4307 0.69577 21.5732 0.6875 29.0234C0.6875 59.8245 42.0195 84.4346 43.7773 85.4693C44.4604 85.8703 45.2241 86.0802 46 86.0802C46.7759 86.0802 47.5396 85.8703 48.2227 85.4693C49.9805 84.4346 91.3125 59.8245 91.3125 29.0234C91.3042 21.5732 88.5853 14.4307 83.7522 9.16259C78.9191 3.89448 72.3663 0.930889 65.5312 0.921875ZM63.3867 61.5361C57.9464 66.5681 52.1307 71.0971 46 75.0759C39.8693 71.0971 34.0536 66.5681 28.6133 61.5361C20.1484 53.6208 10.0625 41.5499 10.0625 29.0234C10.0625 24.2806 11.791 19.7321 14.8678 16.3784C17.9445 13.0247 22.1175 11.1406 26.4688 11.1406C33.4219 11.1406 39.2422 15.143 41.6602 21.5893C42.0121 22.529 42.6128 23.3332 43.3858 23.8993C44.1587 24.4654 45.0688 24.7677 46 24.7677C46.9312 24.7677 47.8413 24.4654 48.6142 23.8993C49.3872 23.3332 49.9879 22.529 50.3398 21.5893C52.7578 15.143 58.5781 11.1406 65.5312 11.1406C69.8825 11.1406 74.0555 13.0247 77.1322 16.3784C80.209 19.7321 81.9375 24.2806 81.9375 29.0234C81.9375 41.5499 71.8516 53.6208 63.3867 61.5361Z" fill="white"/>
</svg>
