<?xml version="1.0" encoding="utf-8"?>
<!-- Generator: Adobe Illustrator 21.1.0, SVG Export Plug-In . SVG Version: 6.00 Build 0)  -->
<svg version="1.1" id="Capa_1" xmlns="http://www.w3.org/2000/svg" xmlns:xlink="http://www.w3.org/1999/xlink" x="0px" y="0px"
	 width="279px" height="279px" viewBox="0 0 279 279" style="enable-background:new 0 0 279 279;" xml:space="preserve">
<style type="text/css">
	.st0{fill:none;stroke:#333333;stroke-width:1.4173;stroke-miterlimit:10;}
	.st1{fill:none;stroke:#333333;stroke-width:0.56;stroke-miterlimit:10;}
</style>
<g>
	<polygon class="st0" points="65.4,48.2 124.1,44.6 153.3,70.8 187.2,119.2 209.6,130.2 224.8,115.2 231.4,151.6 217.4,179.9 
		209.6,151.6 196.4,162.7 178.1,138.7 166,138.7 132,151.6 109.6,139 101.7,117.9 118.8,87.7 109.6,62.1 	"/>
	<polyline class="st0" points="118.8,87.7 68.1,73.6 88.5,102.9 49.3,137.3 101.5,147.8 106.4,183.2 132,151.6 150.5,190.2 
		166.2,201.1 196.4,195.4 183.4,187 187.1,176.6 172.4,170.7 166,138.7 	"/>
	<polyline class="st0" points="106.4,183.2 122.9,234.4 61.8,234.4 79.8,193.2 59.9,203.3 69.2,169.3 47.6,179.9 65.4,140.5 	"/>
	<path class="st1" d="M222.7,169.3"/>
	<polyline class="st1" points="175,101.9 118.8,87.7 178.3,138.5 	"/>
	<polyline class="st1" points="68.1,73.6 110.4,102.6 88.5,102.9 101.7,117.9 49.3,137.3 109.6,139 101.5,147.8 121.3,145.6 	"/>
</g>
</svg>
