<svg width="168" height="187" viewBox="0 0 168 187" fill="none" xmlns="http://www.w3.org/2000/svg">
<path d="M84.2627 26.4536L105.453 26.8225L118.632 32.6326L151.365 9.3001L157.395 1H162.563L160.582 17.6002L166.87 48.3106L156.016 80.8654L147.058 86.6755H135.86L141.631 135.185L136.721 154.275L105.453 180.19L84.2627 186" stroke="white" stroke-width="2" stroke-miterlimit="10"/>
<path d="M84.2627 131.035H90.5508L107.434 143.762L110.621 154.275L100.543 166.264L84.2627 169.769" stroke="white" stroke-width="2" stroke-miterlimit="10"/>
<path d="M135.602 86.7677L132.931 63.5274L118.632 32.6326L84.2627 97.0967L135.86 90.5488" stroke="white" stroke-width="2" stroke-miterlimit="10" stroke-linejoin="bevel"/>
<path d="M84.2627 123.104H91.1538L110.104 137.306L111.31 154.275" stroke="white" stroke-width="2" stroke-miterlimit="10" stroke-linejoin="bevel"/>
<path d="M83.9181 114.711H90.8092L109.76 128.914L110.104 137.306" stroke="white" stroke-width="2" stroke-miterlimit="10" stroke-linejoin="bevel"/>
<path d="M159.893 17.6925L132.931 63.5275" stroke="white" stroke-width="2" stroke-miterlimit="10" stroke-linejoin="bevel"/>
<path d="M84.6073 26.4536L63.4171 26.8225L50.2378 32.6326L17.505 9.3001L11.4753 1H6.30695L8.28814 17.6002L2 48.3106L12.8535 80.8654L21.812 86.6755H33.01L27.2387 135.185L32.1486 154.275L63.4171 180.19L84.6073 186" stroke="white" stroke-width="2" stroke-miterlimit="10"/>
<path d="M84.6072 131.035H78.319L61.4358 143.762L58.2487 154.275L68.3269 166.264L84.6072 169.769" stroke="white" stroke-width="2" stroke-miterlimit="10"/>
<path d="M33.2684 86.7676L35.9387 63.5274L50.2377 32.6326L84.6072 97.0966L33.0099 90.5488" stroke="white" stroke-width="2" stroke-miterlimit="10" stroke-linejoin="bevel"/>
<path d="M84.6073 123.104H77.7161L58.7656 137.306L57.5596 154.275" stroke="white" stroke-width="2" stroke-miterlimit="10" stroke-linejoin="bevel"/>
<path d="M84.9519 114.711H78.0608L59.1102 128.914L58.7656 137.306" stroke="white" stroke-width="2" stroke-miterlimit="10" stroke-linejoin="bevel"/>
<path d="M8.97723 17.6924L35.9387 63.5274" stroke="white" stroke-width="2" stroke-miterlimit="10" stroke-linejoin="bevel"/>
</svg>
