<svg width="189" height="188" viewBox="0 0 189 188" fill="none" xmlns="http://www.w3.org/2000/svg">
<path d="M94.1316 89.4326H85.0819L80.3852 91.2826L35.1368 9.56087L15.6628 2L1 21.9478V40.1261L54.038 94.0174L37.6569 141.474L54.9544 157.239L47.6231 164.478L51.0596 174.774L84.7382 181.852" stroke="white" stroke-width="2" stroke-miterlimit="10"/>
<path d="M68.5862 92.4891L1 21.9478" stroke="white" stroke-width="2" stroke-miterlimit="10"/>
<path d="M94.1315 153.62L81.6452 155.148L76.0321 160.537V166.328L94.1315 173.889" stroke="white" stroke-width="2" stroke-miterlimit="10"/>
<path d="M83.8217 169.546L85.0817 187H94.1314V173.889" stroke="white" stroke-width="2" stroke-miterlimit="10"/>
<path d="M79.9269 91.6043L54.6107 93.937L68.5862 130.454L54.9544 157.239" stroke="white" stroke-width="2" stroke-miterlimit="10"/>
<path d="M94.1315 89.4326H103.181L107.878 91.2826L153.126 9.56088L172.6 2.00001L187.263 21.9478V40.1261L134.225 94.0174L150.606 141.474L133.309 157.239L140.64 164.478L137.203 174.774L103.525 181.852" stroke="white" stroke-width="2" stroke-miterlimit="10"/>
<path d="M119.677 92.4891L187.263 21.9478" stroke="white" stroke-width="2" stroke-miterlimit="10"/>
<path d="M94.1315 153.62L106.618 155.148L112.231 160.537V166.328L94.1315 173.889" stroke="white" stroke-width="2" stroke-miterlimit="10"/>
<path d="M104.441 169.546L103.181 187H94.1315V173.889" stroke="white" stroke-width="2" stroke-miterlimit="10"/>
<path d="M108.336 91.6043L133.652 93.937L119.677 130.454L133.309 157.239" stroke="white" stroke-width="2" stroke-miterlimit="10"/>
</svg>
