<svg width="279" height="279" viewBox="0 0 279 279" fill="none" xmlns="http://www.w3.org/2000/svg">
<path d="M139.5 78H129.1L119.2 84.6L112.4 67.4L86.4 57.4L62.2 68.1L56 89.8L67.3 118L85.2 124.1L99.2 119.7L100.9 134.2L108.8 166.7L129.1 201.3H139.5" stroke="white" stroke-width="1.4173" stroke-miterlimit="10"/>
<path d="M100.2 128.5L129.9 146.7L108.4 165" stroke="white" stroke-width="0.56" stroke-miterlimit="10"/>
<path d="M88.3 72.1L100.2 74.9L109.1 90.1L100.2 110.6L85.6 113.1L72.1 106.6L67.8 89.9L74.1 75.6L88.3 72.1Z" stroke="white" stroke-width="0.56" stroke-miterlimit="10"/>
<path d="M129.9 146.7L119.8 185.5" stroke="white" stroke-width="0.56" stroke-miterlimit="10"/>
<path d="M104.8 180.1H43.6L100.2 190.4L61.8 198.9L104.8 195.6L87.3 221.6L119.8 203.9L104.8 180.1Z" stroke="white" stroke-width="1.4173" stroke-miterlimit="10"/>
<path d="M139.5 204.9H129.9L139.5 214.9" stroke="white" stroke-width="1.4173" stroke-miterlimit="10"/>
<path d="M43.6 180.1L108.2 185.5L101.6 190.6L109.1 189.3L97.7 196.2" stroke="white" stroke-width="0.56" stroke-miterlimit="10"/>
<path d="M113.5 193.9L88.5 221" stroke="white" stroke-width="0.56" stroke-miterlimit="10"/>
<path d="M139.5 78H129.1L119.2 84.6L112.4 67.4L86.4 57.4L62.2 68.1L56 89.8L67.3 118L85.2 124.1L99.2 119.7L100.9 134.2L108.8 166.7L129.1 201.3H139.5" stroke="white" stroke-width="1.4173" stroke-miterlimit="10"/>
<path d="M100.2 128.5L129.9 146.7L108.4 165" stroke="white" stroke-width="0.56" stroke-miterlimit="10"/>
<path d="M88.3 72.1L100.2 74.9L109.1 90.1L100.2 110.6L85.6 113.1L72.1 106.6L67.8 89.9L74.1 75.6L88.3 72.1Z" stroke="white" stroke-width="0.56" stroke-miterlimit="10"/>
<path d="M129.9 146.7L119.8 185.5" stroke="white" stroke-width="0.56" stroke-miterlimit="10"/>
<path d="M104.8 180.1H43.6L100.2 190.4L61.8 198.9L104.8 195.6L87.3 221.6L119.8 203.9L104.8 180.1Z" stroke="white" stroke-width="1.2" stroke-miterlimit="10"/>
<path d="M139.5 204.9H129.9L139.5 214.9" stroke="white" stroke-width="1.4173" stroke-miterlimit="10"/>
<path d="M43.6 180.1L108.2 185.5L101.6 190.6L109.1 189.3L97.7 196.2" stroke="white" stroke-width="0.56" stroke-miterlimit="10"/>
<path d="M113.5 193.9L88.5 221" stroke="white" stroke-width="0.56" stroke-miterlimit="10"/>
<path d="M139.5 78H149.9L159.8 84.6L166.6 67.4L192.6 57.4L216.8 68.1L223 89.8L211.7 118L193.8 124.1L179.8 119.7L178.1 134.2L170.2 166.7L149.9 201.3H139.5" stroke="white" stroke-width="1.417" stroke-miterlimit="10"/>
<path d="M178.8 128.5L149.1 146.7L170.6 165" stroke="white" stroke-width="0.56" stroke-miterlimit="10"/>
<path d="M190.7 72.1L178.8 74.9L169.9 90.1L178.8 110.6L193.4 113.1L206.9 106.6L211.2 89.9L204.9 75.6L190.7 72.1Z" stroke="white" stroke-width="0.56" stroke-miterlimit="10"/>
<path d="M149.1 146.7L159.2 185.5" stroke="white" stroke-width="0.56" stroke-miterlimit="10"/>
<path d="M174.2 180.1H235.4L178.8 190.4L217.2 198.9L174.2 195.6L191.7 221.6L159.2 203.9L174.2 180.1Z" stroke="white" stroke-width="1.2" stroke-miterlimit="10"/>
<path d="M139.5 204.9H149.1L139.5 214.9" stroke="white" stroke-width="1.4173" stroke-miterlimit="10"/>
<path d="M235.4 180.1L170.8 185.5L177.4 190.6L169.9 189.3L181.3 196.2" stroke="white" stroke-width="0.56" stroke-miterlimit="10"/>
<path d="M165.5 193.9L190.5 221" stroke="white" stroke-width="0.56" stroke-miterlimit="10"/>
</svg>
