<svg width="201" height="211" viewBox="0 0 201 211" fill="none" xmlns="http://www.w3.org/2000/svg">
<path d="M100.7 68.8L135.8 79.0999L147.5 100.4L114.9 105.8L93.8 124.3V152.4L132.7 190.8H151.2L173.1 155.1V134L162.1 120.3L199.5 123L193 105.9L177.2 100.5L181.3 79.2L146.6 31.9C146.6 31.9 134 44.1999 135.7 42.1999C137.4 40.1999 126.5 18.2 126.5 18.2L121 36.5999L105.7 13.2999V34.5999L84.4 3.19995L81.2 37.3L55.8 17.4L51.7 43.5L44.9 56.5L66.8 68.2L100.7 68.8Z" stroke="white" stroke-width="1.5981" stroke-miterlimit="10"/>
<path d="M100.7 68.7999L56.5 90.8999L22.9 133.3L1.5 209.8H130.9L122.2 180.6" stroke="white" stroke-width="1.5981" stroke-miterlimit="10"/>
<path d="M51.7 43.5L68.3 68.2L55.8 17.4L99.1 68.8L84.3 3.19995L108.7 71.2L121 36.5999C121 36.5999 135.7 80.8999 135.7 79.0999C135.7 77.2999 146.6 31.8 146.6 31.8L176.8 100.8H147.9L162.1 120.2" stroke="white" stroke-width="0.6314" stroke-miterlimit="10" stroke-linecap="round" stroke-linejoin="round"/>
</svg>
