<?xml version="1.0" encoding="utf-8"?>
<!-- Generator: Adobe Illustrator 21.1.0, SVG Export Plug-In . SVG Version: 6.00 Build 0)  -->
<svg version="1.1" id="Capa_1" xmlns="http://www.w3.org/2000/svg" xmlns:xlink="http://www.w3.org/1999/xlink" x="0px" y="0px"
	 width="279px" height="279px" viewBox="0 0 279 279" style="enable-background:new 0 0 279 279;" xml:space="preserve">
<style type="text/css">
	.st0{fill:none;stroke:#333333;stroke-width:1.417;stroke-linecap:square;stroke-linejoin:bevel;stroke-miterlimit:10;}
	.st1{fill:none;stroke:#333333;stroke-width:0.5669;stroke-linejoin:bevel;stroke-miterlimit:10;}
	.st2{fill:none;stroke:#333333;stroke-width:0.6658;stroke-linejoin:bevel;stroke-miterlimit:10;}
	.st3{fill:none;stroke:#333333;stroke-width:1.4173;stroke-linecap:square;stroke-linejoin:bevel;stroke-miterlimit:10;}
	.st4{fill:none;stroke:#333333;stroke-width:1.4173;stroke-linejoin:bevel;stroke-miterlimit:10;}
</style>
<g>
	<polyline class="st0" points="139.5,110.6 165.3,54.2 203,34.2 234.6,30.8 210.2,44.2 187,70.7 179.6,100.1 179.6,119.7 
		199.7,119.7 241.3,136.4 217.9,145.5 188.2,145.5 190.4,152.2 170.1,199 162.4,229.6 139.5,248.2 	"/>
	<polyline class="st1" points="40,135.5 99.4,119.7 139.5,110.6 99.4,100.1 113.7,54.2 	"/>
	<line class="st1" x1="99.4" y1="119.7" x2="90.8" y2="145.5"/>
	<polyline class="st1" points="88.6,152.2 112.7,164.1 139.5,164.1 	"/>
	<line class="st2" x1="139.5" y1="110.6" x2="139.5" y2="248.2"/>
	<line class="st1" x1="108.9" y1="199" x2="139.5" y2="227.6"/>
	<polyline class="st3" points="139.5,110.6 113.7,54.2 76,34.2 44.4,30.8 68.8,44.2 92,70.7 99.4,100.1 99.4,119.7 79.3,119.7 
		37.7,136.4 61.1,145.5 90.8,145.5 88.6,152.2 108.9,199 116.6,229.6 139.5,248.2 	"/>
	<polyline class="st1" points="239,135.5 179.6,119.7 139.5,110.6 179.6,100.1 165.3,54.2 	"/>
	<line class="st1" x1="179.6" y1="119.7" x2="188.2" y2="145.5"/>
	<polyline class="st1" points="190.4,152.2 166.3,164.1 139.5,164.1 	"/>
	<line class="st4" x1="139.5" y1="110.6" x2="139.5" y2="248.2"/>
	<line class="st1" x1="170.1" y1="199" x2="139.5" y2="227.6"/>
</g>
</svg>
