<svg width="372" height="89" viewBox="0 0 372 89" fill="none" xmlns="http://www.w3.org/2000/svg">
<path d="M0.716 17.544H78.092V62.76H70.604V24.648H7.916V63.24H0.716V17.544ZM4.556 50.184H74.924V57.192H4.556V50.184ZM35.468 0.359997H42.956V88.584H35.468V0.359997ZM110.732 19.656H159.98V26.088H110.732V19.656ZM113.42 39.72H157.676V46.056H113.42V39.72ZM109.292 62.28H162.092V68.424H109.292V62.28ZM131.564 21.672H138.284V65.544H131.564V21.672ZM144.332 50.28L148.94 47.688C152.588 50.856 156.812 55.272 158.732 58.248L153.836 61.224C151.916 58.248 147.788 53.544 144.332 50.28ZM95.66 4.776H175.244V88.776H167.564V11.4H102.956V88.776H95.66V4.776ZM99.596 77.256H171.116V83.88H99.596V77.256ZM200.972 63.528H263.372V69.48H200.972V63.528ZM202.988 48.264H267.404V54.504H202.988V48.264ZM189.644 79.944H273.452V86.28H189.644V79.944ZM227.852 40.488H235.244V84.168H227.852V40.488ZM206.636 24.072V32.616H256.268V24.072H206.636ZM206.636 10.056V18.6H256.268V10.056H206.636ZM199.628 4.296H263.66V38.472H199.628V4.296ZM205.868 38.568L212.876 40.584C208.364 49.992 201.164 59.208 194.252 65.16C192.908 63.912 190.028 61.704 188.204 60.648C195.308 55.272 201.932 47.016 205.868 38.568ZM330.476 21.192H337.484V82.92H330.476V21.192ZM303.98 59.208H364.94V65.544H303.98V59.208ZM297.74 79.944H370.892V86.28H297.74V79.944ZM313.292 22.824L320.012 23.496C317.804 37.512 312.62 48.168 304.172 55.176C303.116 54.024 300.236 51.912 298.7 50.952C306.956 44.808 311.468 35.016 313.292 22.824ZM310.892 37.992L315.02 33.96C319.916 38.088 326.06 44.04 328.94 47.784L324.62 52.488C321.74 48.648 315.788 42.408 310.892 37.992ZM351.884 22.824L358.508 23.592C356.3 37.032 350.828 47.208 342.38 53.928C341.42 52.776 338.732 50.568 337.196 49.512C345.356 43.752 350.06 34.536 351.884 22.824ZM348.812 37.8L353.132 33.576C359.18 38.472 367.148 45.384 371.084 49.704L366.572 54.6C362.732 50.088 354.956 42.888 348.812 37.8ZM326.54 0.455996H333.932V15.24H326.54V0.455996ZM293.996 10.536H370.604V17.352H293.996V10.536ZM290.252 10.536H297.26V37.32C297.26 52.008 296.012 73.8 288.236 88.488C286.892 87.144 283.82 85.224 282.092 84.456C289.58 70.632 290.252 51.144 290.252 37.224V10.536Z" fill="white"/>
</svg>
